<svg id="Fill_out_line" height="512" viewBox="0 0 512 512" width="512" xmlns="http://www.w3.org/2000/svg" data-name="Fill out line"><path d="m24 456h304a0 0 0 0 1 0 0 32 32 0 0 1 -32 32h-240a32 32 0 0 1 -32-32 0 0 0 0 1 0 0z" fill="#104f91"/><path d="m288.00006 312h-40.00006v32h40a24 24 0 0 1 24 24 24 24 0 0 1 -24 24h-40v32h40.00006a55.99994 55.99994 0 0 0 55.99994-56 55.99994 55.99994 0 0 0 -55.99994-56z" fill="#104f91"/><path d="m80 296h192a0 0 0 0 1 0 0v96a64 64 0 0 1 -64 64h-64a64 64 0 0 1 -64-64v-96a0 0 0 0 1 0 0z" fill="#3ea7ff"/><path d="m236 296v20a104.00007 104.00007 0 0 1 -104 104h-24a63.79956 63.79956 0 0 1 -23.51947-4.48047 64.0065 64.0065 0 0 0 59.51947 40.48047h64a64 64 0 0 0 64-64v-96z" fill="#2b7cd4"/><path d="m112 56h128v48h-128z" fill="#e6e6e6"/><path d="m160 104h32v64h-32z" fill="#ccc"/><path d="m192 136a32 32 0 0 1 32 32 0 0 0 0 1 0 0h-32a0 0 0 0 1 0 0v-32a0 0 0 0 1 0 0z" fill="#e6e6e6"/><path d="m128 136h32a0 0 0 0 1 0 0 32 32 0 0 1 -32 32 0 0 0 0 1 0 0v-32a0 0 0 0 1 0 0z" fill="#e6e6e6" transform="matrix(-1 0 0 -1 288 304)"/><path d="m88 24h176v32h-176z" fill="#ccc"/><g fill="#dc9265"><path d="m296 40h200v64h-200z"/><path d="m144 240c0-13.25483-24-40-24-40s-24 26.74517-24 40a24 24 0 0 0 48 0z"/><path d="m256 240c0-13.25483-24-40-24-40s-24 26.74517-24 40a24 24 0 0 0 48 0z"/></g><path d="m288 40v8h-16v-24a8.00008 8.00008 0 0 0 -8-8h-176a8.00008 8.00008 0 0 0 -8 8v32a8.00008 8.00008 0 0 0 8 8h16v40a8.00008 8.00008 0 0 0 8 8h40v16.80493a40.068 40.068 0 0 0 -32 39.19507 8.00008 8.00008 0 0 0 8 8h96a8.00008 8.00008 0 0 0 8-8 40.068 40.068 0 0 0 -32-39.19507v-16.80493h40a8.00008 8.00008 0 0 0 8-8v-8h40v8a8.00008 8.00008 0 0 0 8 8h200v-16h-192v-48h192v-16h-200a8.00008 8.00008 0 0 0 -8 8zm-192-8h160v16h-160zm56 113.387v14.613h-14.62891a24.10839 24.10839 0 0 1 14.62891-14.613zm62.62891 14.613h-14.62891v-14.613a24.10839 24.10839 0 0 1 14.62891 14.613zm-30.62891 0h-16v-48h16zm-64-64v-32h112v32zm128-16v-16h40v16z"/><path d="m152 240c0-15.53125-21.69629-40.49609-26.0459-45.34277a7.99934 7.99934 0 0 0 -11.9082 0c-4.34961 4.84668-26.0459 29.81152-26.0459 45.34277a32 32 0 0 0 64 0zm-48 0c0-5.09961 7.519-17.00879 16-27.61328 8.48193 10.60547 16 22.51367 16 27.61328a16 16 0 0 1 -32 0z"/><path d="m264 240c0-15.53125-21.69629-40.49609-26.0459-45.34277a7.99934 7.99934 0 0 0 -11.9082 0c-4.34961 4.84668-26.0459 29.81152-26.0459 45.34277a32 32 0 0 0 64 0zm-48 0c0-5.09961 7.519-17.00879 16-27.61328 8.48193 10.60547 16 22.51367 16 27.61328a16 16 0 0 1 -32 0z"/><path d="m16 456a40.04552 40.04552 0 0 0 40 40h240a40.04552 40.04552 0 0 0 40-40 8.00008 8.00008 0 0 0 -8-8h-74.81488a72.57991 72.57991 0 0 0 14.648-16h20.16688a64 64 0 0 0 0-128h-8v-8a8.00008 8.00008 0 0 0 -8-8h-192a8.00008 8.00008 0 0 0 -8 8v96a71.88429 71.88429 0 0 0 26.81488 56h-74.81488a8.00008 8.00008 0 0 0 -8 8zm272-136a48 48 0 0 1 0 96h-12.1283a71.41705 71.41705 0 0 0 3.67316-16h8.45514a32 32 0 0 0 0-64h-8v-16zm-8 64v-32h8a16 16 0 0 1 0 32zm-192 8v-88h176v88a56.06322 56.06322 0 0 1 -56 56h-64a56.06322 56.06322 0 0 1 -56-56zm230.62891 72a24.04118 24.04118 0 0 1 -22.62891 16h-240a24.04118 24.04118 0 0 1 -22.62891-16z"/></svg>